<svg xmlns="http://www.w3.org/2000/svg" width="95.61mm" height="115.61mm"
     viewBox="0 0 95.6098 115.6098" role="img"
     aria-label="QR: 성형기 #2 · 작업 안내 / Ish ko‘rsatmasi">
  <title>성형기 #2 · 작업 안내 / Ish ko‘rsatmasi</title>
  <rect width="95.6098" height="115.6098" fill="#ffffff"/>
  <!-- QR: https://johnnysenior.github.io/worklingo/m/pellet-mill-2/ — error correction H, 41x41 modules, 80mm square -->
  <path d="M7.8049 7.8049h13.6585v1.9512h-13.6585zM23.4146 7.8049h3.9024v1.9512h-3.9024zM33.1707 7.8049h3.9024v1.9512h-3.9024zM39.0244 7.8049h3.9024v1.9512h-3.9024zM48.7805 7.8049h5.8537v1.9512h-5.8537zM56.5854 7.8049h3.9024v1.9512h-3.9024zM62.4390 7.8049h9.7561v1.9512h-9.7561zM74.1463 7.8049h13.6585v1.9512h-13.6585zM7.8049 9.7561h1.9512v1.9512h-1.9512zM19.5122 9.7561h1.9512v1.9512h-1.9512zM23.4146 9.7561h3.9024v1.9512h-3.9024zM29.2683 9.7561h1.9512v1.9512h-1.9512zM37.0732 9.7561h1.9512v1.9512h-1.9512zM42.9268 9.7561h1.9512v1.9512h-1.9512zM50.7317 9.7561h3.9024v1.9512h-3.9024zM56.5854 9.7561h7.8049v1.9512h-7.8049zM74.1463 9.7561h1.9512v1.9512h-1.9512zM85.8537 9.7561h1.9512v1.9512h-1.9512zM7.8049 11.7073h1.9512v1.9512h-1.9512zM11.7073 11.7073h5.8537v1.9512h-5.8537zM19.5122 11.7073h1.9512v1.9512h-1.9512zM23.4146 11.7073h3.9024v1.9512h-3.9024zM29.2683 11.7073h1.9512v1.9512h-1.9512zM33.1707 11.7073h1.9512v1.9512h-1.9512zM40.9756 11.7073h3.9024v1.9512h-3.9024zM46.8293 11.7073h11.7073v1.9512h-11.7073zM62.4390 11.7073h1.9512v1.9512h-1.9512zM66.3415 11.7073h5.8537v1.9512h-5.8537zM74.1463 11.7073h1.9512v1.9512h-1.9512zM78.0488 11.7073h5.8537v1.9512h-5.8537zM85.8537 11.7073h1.9512v1.9512h-1.9512zM7.8049 13.6585h1.9512v1.9512h-1.9512zM11.7073 13.6585h5.8537v1.9512h-5.8537zM19.5122 13.6585h1.9512v1.9512h-1.9512zM25.3659 13.6585h1.9512v1.9512h-1.9512zM29.2683 13.6585h3.9024v1.9512h-3.9024zM35.1220 13.6585h1.9512v1.9512h-1.9512zM39.0244 13.6585h11.7073v1.9512h-11.7073zM52.6829 13.6585h1.9512v1.9512h-1.9512zM58.5366 13.6585h1.9512v1.9512h-1.9512zM64.3902 13.6585h1.9512v1.9512h-1.9512zM68.2927 13.6585h3.9024v1.9512h-3.9024zM74.1463 13.6585h1.9512v1.9512h-1.9512zM78.0488 13.6585h5.8537v1.9512h-5.8537zM85.8537 13.6585h1.9512v1.9512h-1.9512zM7.8049 15.6098h1.9512v1.9512h-1.9512zM11.7073 15.6098h5.8537v1.9512h-5.8537zM19.5122 15.6098h1.9512v1.9512h-1.9512zM25.3659 15.6098h1.9512v1.9512h-1.9512zM29.2683 15.6098h1.9512v1.9512h-1.9512zM37.0732 15.6098h1.9512v1.9512h-1.9512zM44.8780 15.6098h1.9512v1.9512h-1.9512zM56.5854 15.6098h1.9512v1.9512h-1.9512zM62.4390 15.6098h9.7561v1.9512h-9.7561zM74.1463 15.6098h1.9512v1.9512h-1.9512zM78.0488 15.6098h5.8537v1.9512h-5.8537zM85.8537 15.6098h1.9512v1.9512h-1.9512zM7.8049 17.5610h1.9512v1.9512h-1.9512zM19.5122 17.5610h1.9512v1.9512h-1.9512zM23.4146 17.5610h1.9512v1.9512h-1.9512zM27.3171 17.5610h3.9024v1.9512h-3.9024zM35.1220 17.5610h7.8049v1.9512h-7.8049zM46.8293 17.5610h1.9512v1.9512h-1.9512zM50.7317 17.5610h3.9024v1.9512h-3.9024zM58.5366 17.5610h3.9024v1.9512h-3.9024zM64.3902 17.5610h3.9024v1.9512h-3.9024zM70.2439 17.5610h1.9512v1.9512h-1.9512zM74.1463 17.5610h1.9512v1.9512h-1.9512zM85.8537 17.5610h1.9512v1.9512h-1.9512zM7.8049 19.5122h13.6585v1.9512h-13.6585zM23.4146 19.5122h1.9512v1.9512h-1.9512zM27.3171 19.5122h1.9512v1.9512h-1.9512zM31.2195 19.5122h1.9512v1.9512h-1.9512zM35.1220 19.5122h1.9512v1.9512h-1.9512zM39.0244 19.5122h1.9512v1.9512h-1.9512zM42.9268 19.5122h1.9512v1.9512h-1.9512zM46.8293 19.5122h1.9512v1.9512h-1.9512zM50.7317 19.5122h1.9512v1.9512h-1.9512zM54.6341 19.5122h1.9512v1.9512h-1.9512zM58.5366 19.5122h1.9512v1.9512h-1.9512zM62.4390 19.5122h1.9512v1.9512h-1.9512zM66.3415 19.5122h1.9512v1.9512h-1.9512zM70.2439 19.5122h1.9512v1.9512h-1.9512zM74.1463 19.5122h13.6585v1.9512h-13.6585zM23.4146 21.4634h5.8537v1.9512h-5.8537zM37.0732 21.4634h3.9024v1.9512h-3.9024zM42.9268 21.4634h3.9024v1.9512h-3.9024zM48.7805 21.4634h5.8537v1.9512h-5.8537zM58.5366 21.4634h1.9512v1.9512h-1.9512zM62.4390 21.4634h1.9512v1.9512h-1.9512zM66.3415 21.4634h1.9512v1.9512h-1.9512zM11.7073 23.4146h5.8537v1.9512h-5.8537zM19.5122 23.4146h1.9512v1.9512h-1.9512zM23.4146 23.4146h5.8537v1.9512h-5.8537zM35.1220 23.4146h1.9512v1.9512h-1.9512zM44.8780 23.4146h5.8537v1.9512h-5.8537zM54.6341 23.4146h5.8537v1.9512h-5.8537zM62.4390 23.4146h3.9024v1.9512h-3.9024zM68.2927 23.4146h1.9512v1.9512h-1.9512zM72.1951 23.4146h5.8537v1.9512h-5.8537zM81.9512 23.4146h5.8537v1.9512h-5.8537zM7.8049 25.3659h11.7073v1.9512h-11.7073zM21.4634 25.3659h9.7561v1.9512h-9.7561zM35.1220 25.3659h1.9512v1.9512h-1.9512zM39.0244 25.3659h1.9512v1.9512h-1.9512zM44.8780 25.3659h3.9024v1.9512h-3.9024zM50.7317 25.3659h1.9512v1.9512h-1.9512zM54.6341 25.3659h3.9024v1.9512h-3.9024zM62.4390 25.3659h1.9512v1.9512h-1.9512zM66.3415 25.3659h13.6585v1.9512h-13.6585zM81.9512 25.3659h5.8537v1.9512h-5.8537zM9.7561 27.3171h3.9024v1.9512h-3.9024zM15.6098 27.3171h1.9512v1.9512h-1.9512zM19.5122 27.3171h3.9024v1.9512h-3.9024zM25.3659 27.3171h9.7561v1.9512h-9.7561zM37.0732 27.3171h1.9512v1.9512h-1.9512zM40.9756 27.3171h3.9024v1.9512h-3.9024zM50.7317 27.3171h3.9024v1.9512h-3.9024zM56.5854 27.3171h5.8537v1.9512h-5.8537zM70.2439 27.3171h1.9512v1.9512h-1.9512zM9.7561 29.2683h1.9512v1.9512h-1.9512zM13.6585 29.2683h5.8537v1.9512h-5.8537zM21.4634 29.2683h5.8537v1.9512h-5.8537zM31.2195 29.2683h1.9512v1.9512h-1.9512zM35.1220 29.2683h5.8537v1.9512h-5.8537zM42.9268 29.2683h5.8537v1.9512h-5.8537zM52.6829 29.2683h5.8537v1.9512h-5.8537zM62.4390 29.2683h1.9512v1.9512h-1.9512zM66.3415 29.2683h7.8049v1.9512h-7.8049zM78.0488 29.2683h3.9024v1.9512h-3.9024zM9.7561 31.2195h3.9024v1.9512h-3.9024zM15.6098 31.2195h1.9512v1.9512h-1.9512zM19.5122 31.2195h1.9512v1.9512h-1.9512zM23.4146 31.2195h1.9512v1.9512h-1.9512zM31.2195 31.2195h1.9512v1.9512h-1.9512zM35.1220 31.2195h1.9512v1.9512h-1.9512zM39.0244 31.2195h5.8537v1.9512h-5.8537zM54.6341 31.2195h3.9024v1.9512h-3.9024zM64.3902 31.2195h1.9512v1.9512h-1.9512zM68.2927 31.2195h1.9512v1.9512h-1.9512zM72.1951 31.2195h1.9512v1.9512h-1.9512zM76.0976 31.2195h1.9512v1.9512h-1.9512zM80.0000 31.2195h3.9024v1.9512h-3.9024zM7.8049 33.1707h1.9512v1.9512h-1.9512zM17.5610 33.1707h1.9512v1.9512h-1.9512zM25.3659 33.1707h5.8537v1.9512h-5.8537zM37.0732 33.1707h3.9024v1.9512h-3.9024zM42.9268 33.1707h7.8049v1.9512h-7.8049zM52.6829 33.1707h9.7561v1.9512h-9.7561zM66.3415 33.1707h15.6098v1.9512h-15.6098zM83.9024 33.1707h3.9024v1.9512h-3.9024zM7.8049 35.1220h1.9512v1.9512h-1.9512zM11.7073 35.1220h1.9512v1.9512h-1.9512zM17.5610 35.1220h5.8537v1.9512h-5.8537zM29.2683 35.1220h9.7561v1.9512h-9.7561zM46.8293 35.1220h1.9512v1.9512h-1.9512zM50.7317 35.1220h1.9512v1.9512h-1.9512zM56.5854 35.1220h1.9512v1.9512h-1.9512zM60.4878 35.1220h5.8537v1.9512h-5.8537zM70.2439 35.1220h3.9024v1.9512h-3.9024zM76.0976 35.1220h1.9512v1.9512h-1.9512zM80.0000 35.1220h1.9512v1.9512h-1.9512zM83.9024 35.1220h1.9512v1.9512h-1.9512zM15.6098 37.0732h3.9024v1.9512h-3.9024zM29.2683 37.0732h3.9024v1.9512h-3.9024zM39.0244 37.0732h1.9512v1.9512h-1.9512zM42.9268 37.0732h3.9024v1.9512h-3.9024zM48.7805 37.0732h1.9512v1.9512h-1.9512zM52.6829 37.0732h1.9512v1.9512h-1.9512zM62.4390 37.0732h1.9512v1.9512h-1.9512zM74.1463 37.0732h3.9024v1.9512h-3.9024zM80.0000 37.0732h1.9512v1.9512h-1.9512zM85.8537 37.0732h1.9512v1.9512h-1.9512zM7.8049 39.0244h5.8537v1.9512h-5.8537zM19.5122 39.0244h1.9512v1.9512h-1.9512zM27.3171 39.0244h1.9512v1.9512h-1.9512zM37.0732 39.0244h5.8537v1.9512h-5.8537zM44.8780 39.0244h3.9024v1.9512h-3.9024zM50.7317 39.0244h7.8049v1.9512h-7.8049zM64.3902 39.0244h1.9512v1.9512h-1.9512zM68.2927 39.0244h1.9512v1.9512h-1.9512zM72.1951 39.0244h1.9512v1.9512h-1.9512zM76.0976 39.0244h1.9512v1.9512h-1.9512zM81.9512 39.0244h1.9512v1.9512h-1.9512zM85.8537 39.0244h1.9512v1.9512h-1.9512zM13.6585 40.9756h1.9512v1.9512h-1.9512zM17.5610 40.9756h1.9512v1.9512h-1.9512zM29.2683 40.9756h3.9024v1.9512h-3.9024zM35.1220 40.9756h1.9512v1.9512h-1.9512zM40.9756 40.9756h1.9512v1.9512h-1.9512zM54.6341 40.9756h3.9024v1.9512h-3.9024zM64.3902 40.9756h7.8049v1.9512h-7.8049zM74.1463 40.9756h13.6585v1.9512h-13.6585zM7.8049 42.9268h5.8537v1.9512h-5.8537zM17.5610 42.9268h3.9024v1.9512h-3.9024zM23.4146 42.9268h1.9512v1.9512h-1.9512zM31.2195 42.9268h3.9024v1.9512h-3.9024zM37.0732 42.9268h3.9024v1.9512h-3.9024zM46.8293 42.9268h11.7073v1.9512h-11.7073zM60.4878 42.9268h3.9024v1.9512h-3.9024zM70.2439 42.9268h3.9024v1.9512h-3.9024zM78.0488 42.9268h5.8537v1.9512h-5.8537zM11.7073 44.8780h3.9024v1.9512h-3.9024zM21.4634 44.8780h5.8537v1.9512h-5.8537zM31.2195 44.8780h3.9024v1.9512h-3.9024zM37.0732 44.8780h5.8537v1.9512h-5.8537zM44.8780 44.8780h1.9512v1.9512h-1.9512zM48.7805 44.8780h3.9024v1.9512h-3.9024zM54.6341 44.8780h9.7561v1.9512h-9.7561zM66.3415 44.8780h1.9512v1.9512h-1.9512zM72.1951 44.8780h3.9024v1.9512h-3.9024zM78.0488 44.8780h3.9024v1.9512h-3.9024zM85.8537 44.8780h1.9512v1.9512h-1.9512zM7.8049 46.8293h3.9024v1.9512h-3.9024zM13.6585 46.8293h3.9024v1.9512h-3.9024zM19.5122 46.8293h1.9512v1.9512h-1.9512zM29.2683 46.8293h1.9512v1.9512h-1.9512zM33.1707 46.8293h1.9512v1.9512h-1.9512zM40.9756 46.8293h3.9024v1.9512h-3.9024zM48.7805 46.8293h3.9024v1.9512h-3.9024zM54.6341 46.8293h1.9512v1.9512h-1.9512zM58.5366 46.8293h1.9512v1.9512h-1.9512zM64.3902 46.8293h5.8537v1.9512h-5.8537zM72.1951 46.8293h1.9512v1.9512h-1.9512zM76.0976 46.8293h1.9512v1.9512h-1.9512zM80.0000 46.8293h5.8537v1.9512h-5.8537zM9.7561 48.7805h5.8537v1.9512h-5.8537zM17.5610 48.7805h1.9512v1.9512h-1.9512zM29.2683 48.7805h3.9024v1.9512h-3.9024zM39.0244 48.7805h1.9512v1.9512h-1.9512zM42.9268 48.7805h3.9024v1.9512h-3.9024zM50.7317 48.7805h3.9024v1.9512h-3.9024zM58.5366 48.7805h1.9512v1.9512h-1.9512zM64.3902 48.7805h23.4146v1.9512h-23.4146zM7.8049 50.7317h1.9512v1.9512h-1.9512zM13.6585 50.7317h1.9512v1.9512h-1.9512zM19.5122 50.7317h1.9512v1.9512h-1.9512zM23.4146 50.7317h3.9024v1.9512h-3.9024zM29.2683 50.7317h3.9024v1.9512h-3.9024zM37.0732 50.7317h3.9024v1.9512h-3.9024zM42.9268 50.7317h1.9512v1.9512h-1.9512zM48.7805 50.7317h1.9512v1.9512h-1.9512zM60.4878 50.7317h1.9512v1.9512h-1.9512zM64.3902 50.7317h1.9512v1.9512h-1.9512zM70.2439 50.7317h9.7561v1.9512h-9.7561zM9.7561 52.6829h1.9512v1.9512h-1.9512zM13.6585 52.6829h5.8537v1.9512h-5.8537zM21.4634 52.6829h5.8537v1.9512h-5.8537zM29.2683 52.6829h11.7073v1.9512h-11.7073zM42.9268 52.6829h9.7561v1.9512h-9.7561zM54.6341 52.6829h1.9512v1.9512h-1.9512zM58.5366 52.6829h1.9512v1.9512h-1.9512zM68.2927 52.6829h3.9024v1.9512h-3.9024zM74.1463 52.6829h7.8049v1.9512h-7.8049zM7.8049 54.6341h3.9024v1.9512h-3.9024zM17.5610 54.6341h7.8049v1.9512h-7.8049zM29.2683 54.6341h1.9512v1.9512h-1.9512zM35.1220 54.6341h5.8537v1.9512h-5.8537zM44.8780 54.6341h1.9512v1.9512h-1.9512zM48.7805 54.6341h7.8049v1.9512h-7.8049zM58.5366 54.6341h3.9024v1.9512h-3.9024zM64.3902 54.6341h1.9512v1.9512h-1.9512zM76.0976 54.6341h1.9512v1.9512h-1.9512zM81.9512 54.6341h5.8537v1.9512h-5.8537zM7.8049 56.5854h3.9024v1.9512h-3.9024zM23.4146 56.5854h1.9512v1.9512h-1.9512zM33.1707 56.5854h1.9512v1.9512h-1.9512zM37.0732 56.5854h1.9512v1.9512h-1.9512zM42.9268 56.5854h1.9512v1.9512h-1.9512zM50.7317 56.5854h3.9024v1.9512h-3.9024zM58.5366 56.5854h1.9512v1.9512h-1.9512zM62.4390 56.5854h7.8049v1.9512h-7.8049zM72.1951 56.5854h9.7561v1.9512h-9.7561zM83.9024 56.5854h3.9024v1.9512h-3.9024zM9.7561 58.5366h15.6098v1.9512h-15.6098zM33.1707 58.5366h1.9512v1.9512h-1.9512zM37.0732 58.5366h1.9512v1.9512h-1.9512zM40.9756 58.5366h7.8049v1.9512h-7.8049zM52.6829 58.5366h9.7561v1.9512h-9.7561zM66.3415 58.5366h1.9512v1.9512h-1.9512zM70.2439 58.5366h1.9512v1.9512h-1.9512zM74.1463 58.5366h3.9024v1.9512h-3.9024zM9.7561 60.4878h1.9512v1.9512h-1.9512zM15.6098 60.4878h3.9024v1.9512h-3.9024zM21.4634 60.4878h1.9512v1.9512h-1.9512zM33.1707 60.4878h1.9512v1.9512h-1.9512zM42.9268 60.4878h1.9512v1.9512h-1.9512zM46.8293 60.4878h7.8049v1.9512h-7.8049zM56.5854 60.4878h3.9024v1.9512h-3.9024zM62.4390 60.4878h1.9512v1.9512h-1.9512zM66.3415 60.4878h5.8537v1.9512h-5.8537zM76.0976 60.4878h1.9512v1.9512h-1.9512zM80.0000 60.4878h1.9512v1.9512h-1.9512zM83.9024 60.4878h1.9512v1.9512h-1.9512zM9.7561 62.4390h5.8537v1.9512h-5.8537zM19.5122 62.4390h1.9512v1.9512h-1.9512zM25.3659 62.4390h1.9512v1.9512h-1.9512zM29.2683 62.4390h5.8537v1.9512h-5.8537zM40.9756 62.4390h7.8049v1.9512h-7.8049zM54.6341 62.4390h1.9512v1.9512h-1.9512zM64.3902 62.4390h1.9512v1.9512h-1.9512zM68.2927 62.4390h1.9512v1.9512h-1.9512zM80.0000 62.4390h5.8537v1.9512h-5.8537zM7.8049 64.3902h1.9512v1.9512h-1.9512zM11.7073 64.3902h5.8537v1.9512h-5.8537zM21.4634 64.3902h1.9512v1.9512h-1.9512zM27.3171 64.3902h5.8537v1.9512h-5.8537zM35.1220 64.3902h1.9512v1.9512h-1.9512zM39.0244 64.3902h1.9512v1.9512h-1.9512zM44.8780 64.3902h1.9512v1.9512h-1.9512zM48.7805 64.3902h1.9512v1.9512h-1.9512zM64.3902 64.3902h1.9512v1.9512h-1.9512zM68.2927 64.3902h19.5122v1.9512h-19.5122zM7.8049 66.3415h1.9512v1.9512h-1.9512zM17.5610 66.3415h7.8049v1.9512h-7.8049zM27.3171 66.3415h3.9024v1.9512h-3.9024zM33.1707 66.3415h1.9512v1.9512h-1.9512zM37.0732 66.3415h1.9512v1.9512h-1.9512zM40.9756 66.3415h1.9512v1.9512h-1.9512zM54.6341 66.3415h3.9024v1.9512h-3.9024zM60.4878 66.3415h1.9512v1.9512h-1.9512zM64.3902 66.3415h1.9512v1.9512h-1.9512zM70.2439 66.3415h9.7561v1.9512h-9.7561zM81.9512 66.3415h1.9512v1.9512h-1.9512zM7.8049 68.2927h1.9512v1.9512h-1.9512zM17.5610 68.2927h1.9512v1.9512h-1.9512zM23.4146 68.2927h11.7073v1.9512h-11.7073zM42.9268 68.2927h7.8049v1.9512h-7.8049zM56.5854 68.2927h3.9024v1.9512h-3.9024zM70.2439 68.2927h5.8537v1.9512h-5.8537zM80.0000 68.2927h1.9512v1.9512h-1.9512zM7.8049 70.2439h1.9512v1.9512h-1.9512zM15.6098 70.2439h1.9512v1.9512h-1.9512zM19.5122 70.2439h1.9512v1.9512h-1.9512zM23.4146 70.2439h1.9512v1.9512h-1.9512zM31.2195 70.2439h1.9512v1.9512h-1.9512zM35.1220 70.2439h1.9512v1.9512h-1.9512zM39.0244 70.2439h1.9512v1.9512h-1.9512zM44.8780 70.2439h1.9512v1.9512h-1.9512zM50.7317 70.2439h7.8049v1.9512h-7.8049zM60.4878 70.2439h1.9512v1.9512h-1.9512zM64.3902 70.2439h15.6098v1.9512h-15.6098zM81.9512 70.2439h5.8537v1.9512h-5.8537zM23.4146 72.1951h3.9024v1.9512h-3.9024zM40.9756 72.1951h3.9024v1.9512h-3.9024zM52.6829 72.1951h1.9512v1.9512h-1.9512zM56.5854 72.1951h3.9024v1.9512h-3.9024zM62.4390 72.1951h5.8537v1.9512h-5.8537zM70.2439 72.1951h1.9512v1.9512h-1.9512zM78.0488 72.1951h3.9024v1.9512h-3.9024zM85.8537 72.1951h1.9512v1.9512h-1.9512zM7.8049 74.1463h13.6585v1.9512h-13.6585zM25.3659 74.1463h5.8537v1.9512h-5.8537zM33.1707 74.1463h3.9024v1.9512h-3.9024zM39.0244 74.1463h1.9512v1.9512h-1.9512zM44.8780 74.1463h3.9024v1.9512h-3.9024zM50.7317 74.1463h3.9024v1.9512h-3.9024zM56.5854 74.1463h7.8049v1.9512h-7.8049zM68.2927 74.1463h3.9024v1.9512h-3.9024zM74.1463 74.1463h1.9512v1.9512h-1.9512zM78.0488 74.1463h5.8537v1.9512h-5.8537zM7.8049 76.0976h1.9512v1.9512h-1.9512zM19.5122 76.0976h1.9512v1.9512h-1.9512zM35.1220 76.0976h1.9512v1.9512h-1.9512zM44.8780 76.0976h1.9512v1.9512h-1.9512zM48.7805 76.0976h1.9512v1.9512h-1.9512zM54.6341 76.0976h5.8537v1.9512h-5.8537zM62.4390 76.0976h1.9512v1.9512h-1.9512zM68.2927 76.0976h3.9024v1.9512h-3.9024zM78.0488 76.0976h3.9024v1.9512h-3.9024zM7.8049 78.0488h1.9512v1.9512h-1.9512zM11.7073 78.0488h5.8537v1.9512h-5.8537zM19.5122 78.0488h1.9512v1.9512h-1.9512zM23.4146 78.0488h5.8537v1.9512h-5.8537zM31.2195 78.0488h1.9512v1.9512h-1.9512zM35.1220 78.0488h1.9512v1.9512h-1.9512zM39.0244 78.0488h7.8049v1.9512h-7.8049zM48.7805 78.0488h7.8049v1.9512h-7.8049zM58.5366 78.0488h1.9512v1.9512h-1.9512zM64.3902 78.0488h3.9024v1.9512h-3.9024zM70.2439 78.0488h9.7561v1.9512h-9.7561zM81.9512 78.0488h5.8537v1.9512h-5.8537zM7.8049 80.0000h1.9512v1.9512h-1.9512zM11.7073 80.0000h5.8537v1.9512h-5.8537zM19.5122 80.0000h1.9512v1.9512h-1.9512zM23.4146 80.0000h1.9512v1.9512h-1.9512zM27.3171 80.0000h1.9512v1.9512h-1.9512zM31.2195 80.0000h11.7073v1.9512h-11.7073zM50.7317 80.0000h3.9024v1.9512h-3.9024zM56.5854 80.0000h1.9512v1.9512h-1.9512zM62.4390 80.0000h3.9024v1.9512h-3.9024zM72.1951 80.0000h1.9512v1.9512h-1.9512zM76.0976 80.0000h1.9512v1.9512h-1.9512zM80.0000 80.0000h3.9024v1.9512h-3.9024zM85.8537 80.0000h1.9512v1.9512h-1.9512zM7.8049 81.9512h1.9512v1.9512h-1.9512zM11.7073 81.9512h5.8537v1.9512h-5.8537zM19.5122 81.9512h1.9512v1.9512h-1.9512zM23.4146 81.9512h5.8537v1.9512h-5.8537zM31.2195 81.9512h1.9512v1.9512h-1.9512zM35.1220 81.9512h3.9024v1.9512h-3.9024zM46.8293 81.9512h5.8537v1.9512h-5.8537zM56.5854 81.9512h7.8049v1.9512h-7.8049zM66.3415 81.9512h13.6585v1.9512h-13.6585zM83.9024 81.9512h1.9512v1.9512h-1.9512zM7.8049 83.9024h1.9512v1.9512h-1.9512zM19.5122 83.9024h1.9512v1.9512h-1.9512zM35.1220 83.9024h5.8537v1.9512h-5.8537zM46.8293 83.9024h3.9024v1.9512h-3.9024zM52.6829 83.9024h1.9512v1.9512h-1.9512zM56.5854 83.9024h1.9512v1.9512h-1.9512zM60.4878 83.9024h3.9024v1.9512h-3.9024zM66.3415 83.9024h1.9512v1.9512h-1.9512zM70.2439 83.9024h1.9512v1.9512h-1.9512zM74.1463 83.9024h1.9512v1.9512h-1.9512zM78.0488 83.9024h3.9024v1.9512h-3.9024zM83.9024 83.9024h1.9512v1.9512h-1.9512zM7.8049 85.8537h13.6585v1.9512h-13.6585zM25.3659 85.8537h3.9024v1.9512h-3.9024zM33.1707 85.8537h3.9024v1.9512h-3.9024zM42.9268 85.8537h1.9512v1.9512h-1.9512zM52.6829 85.8537h3.9024v1.9512h-3.9024zM58.5366 85.8537h3.9024v1.9512h-3.9024zM64.3902 85.8537h1.9512v1.9512h-1.9512zM68.2927 85.8537h1.9512v1.9512h-1.9512zM72.1951 85.8537h7.8049v1.9512h-7.8049zM81.9512 85.8537h1.9512v1.9512h-1.9512z" fill="#000000" shape-rendering="crispEdges"/>
  <!-- ===== Yozuv. Matnni shu yerda o'zgartirish mumkin ===== -->
  <text x="47.8049" y="102.6098" text-anchor="middle"
        font-family="'IBM Plex Sans KR','Malgun Gothic','Apple SD Gothic Neo','Noto Sans KR',sans-serif" font-size="6.4" font-weight="700" fill="#000000">성형기 #2 · 작업 안내</text>
  <text x="47.8049" y="110.0098" text-anchor="middle"
        font-family="'IBM Plex Sans KR','Malgun Gothic','Apple SD Gothic Neo','Noto Sans KR',sans-serif" font-size="5.6" font-weight="600" fill="#000000">Ish ko‘rsatmasi</text>
  <text x="47.8049" y="114.8098" text-anchor="middle"
        font-family="'IBM Plex Mono',ui-monospace,monospace" font-size="2.9" fill="#555555">https://johnnysenior.github.io/worklingo/m/pellet-mill-2/</text>
</svg>
